# File created by Blade
# Date/Time:  Tue Jan 27 19:00:46 2015
#---------------------------------------------------------
:version 1.10
:name HOM
:units
  mass 1.0
  length 1.000000
  angle deg
:documentation
     Acclaim Skeleton File
:root
   axis xyz
   order TX TY TZ RX RY RZ
   position 0.000000 0.000000 0.000000
   orientation 0 0 0
:bonedata
   begin
      id 1
      name Spine_dum
      direction 0.000000 1.000000 0.000000
      length 5.195262
      axis 0.0 0.0 0.0 xyz
   end
   begin
      id 2
      name LeftUpLeg_dum
      direction 1.000000 0.000000 0.000000
      length 3.351363
      axis 0.0 0.0 0.0 xyz
   end
   begin
      id 3
      name RightUpLeg_dum
      direction -1.000000 0.000000 0.000000
      length 3.351363
      axis 0.0 0.0 0.0 xyz
   end
   begin
      id 4
      name Spine
      direction 0.000000 1.000000 0.000000
      length 0.000000
      axis 0.0 0.0 0.0 xyz
      dof rx ry rz
   end
   begin
      id 5
      name Spine_dum1
      direction 0.000000 1.000000 0.000000
      length 15.653875
      axis 0.0 0.0 0.0 xyz
   end
   begin
      id 6
      name Spine_dum2
      direction 0.000000 1.000000 0.000000
      length 10.329768
      axis 0.0 0.0 0.0 xyz
   end
   begin
      id 7
      name Spine_dum3
      direction 0.000000 1.000000 0.000000
      length 10.329768
      axis 0.0 0.0 0.0 xyz
   end
   begin
      id 8
      name Head
      direction 0.000000 1.000000 0.000000
      length 4.527550
      axis 0.0 0.0 0.0 xyz
      dof rx ry rz
   end
   begin
      id 9
      name LeftShoulder
      direction 1.000000 0.000000 0.000000
      length 6.996006
      axis 0.0 0.0 -90.0 xyz
      dof rx ry rz
   end
   begin
      id 10
      name LeftArm
      direction 1.000000 0.000000 0.000000
      length 10.209302
      axis 0.0 0.0 -90.0 xyz
      dof rx ry rz
   end
   begin
      id 11
      name LeftForeArm
      direction 1.000000 0.000000 0.000000
      length 8.563163
      axis 0.0 0.0 -90.0 xyz
      dof ry rz rx
   end
   begin
      id 12
      name LeftHand
      direction 0.000000 0.000000 0.000000
      length 0.000000
      axis 0.0 0.0 -90.0 xyz
      dof rx ry rz
   end
   begin
      id 13
      name LeftHand_dum1
      direction 0.000000 0.000000 0.000000
      length 0.000000
      axis 0.0 0.0 -90.0 xyz
   end
   begin
      id 14
      name LeftHand_dum2
      direction 1.000000 0.000000 0.000000
      length 3.937000
      axis 0.0 0.0 -90.0 xyz
   end
   begin
      id 15
      name LeftHandThumb1
      direction 0.000000 0.000000 1.000000
      length 3.937000
      axis 0.0 0.0 -90.0 xyz
      dof rx rz ry
   end
   begin
      id 16
      name RightShoulder
      direction -1.000000 0.000000 0.000000
      length 6.996006
      axis 0.0 0.0 90.0 xyz
      dof rx ry rz
   end
   begin
      id 17
      name RightArm
      direction -1.000000 0.000000 0.000000
      length 10.209302
      axis 0.0 0.0 90.0 xyz
      dof rx ry rz
   end
   begin
      id 18
      name RightForeArm
      direction -1.000000 0.000000 0.000000
      length 8.563163
      axis 0.0 0.0 90.0 xyz
      dof ry rz rx
   end
   begin
      id 19
      name RightHand
      direction 0.000000 0.000000 0.000000
      length 0.000000
      axis 0.0 0.0 90.0 xyz
      dof rx ry rz
   end
   begin
      id 20
      name RightHand_dum1
      direction 0.000000 0.000000 0.000000
      length 0.000000
      axis 0.0 0.0 90.0 xyz
   end
   begin
      id 21
      name RightHand_dum2
      direction -1.000000 0.000000 0.000000
      length 3.937000
      axis 0.0 0.0 90.0 xyz
   end
   begin
      id 22
      name RightHandThumb1
      direction 0.000000 0.000000 1.000000
      length 3.937000
      axis 0.0 0.0 90.0 xyz
      dof rx rz ry
   end
   begin
      id 23
      name LeftUpLeg
      direction 0.000000 -1.000000 0.000000
      length 16.346831
      axis 0.0 0.0 0.0 xyz
      dof rx ry rz
   end
   begin
      id 24
      name LeftLeg
      direction 0.000000 -1.000000 0.000000
      length 13.959795
      axis 0.0 0.0 0.0 xyz
      dof rx ry rz
   end
   begin
      id 25
      name LeftFoot
      direction 0.000000 -0.258819 0.965926
      length 5.165550
      axis 15.0 0.0 0.0 xyz
      dof rx ry rz
   end
   begin
      id 26
      name LeftToeBase
      direction 0.000000 0.000000 1.000000
      length 2.952750
      axis 0.0 0.0 0.0 xyz
      dof rx ry rz
   end
   begin
      id 27
      name RightUpLeg
      direction 0.000000 -1.000000 0.000000
      length 16.346831
      axis 0.0 0.0 0.0 xyz
      dof rx ry rz
   end
   begin
      id 28
      name RightLeg
      direction 0.000000 -1.000000 0.000000
      length 13.959795
      axis 0.0 0.0 0.0 xyz
      dof rx ry rz
   end
   begin
      id 29
      name RightFoot
      direction 0.000000 -0.258819 0.965926
      length 5.165550
      axis 15.0 0.0 0.0 xyz
      dof rx ry rz
   end
   begin
      id 30
      name RightToeBase
      direction 0.000000 0.000000 1.000000
      length 2.952750
      axis 0.0 0.0 0.0 xyz
      dof rx ry rz
   end
:hierarchy
   begin
      root Spine_dum LeftUpLeg_dum RightUpLeg_dum
      Spine_dum Spine
      LeftUpLeg_dum LeftUpLeg
      RightUpLeg_dum RightUpLeg
      Spine Spine_dum1 Spine_dum2 Spine_dum3
      Spine_dum1 Head
      Spine_dum2 LeftShoulder
      Spine_dum3 RightShoulder
      LeftShoulder LeftArm
      LeftArm LeftForeArm
      LeftForeArm LeftHand
      LeftHand LeftHand_dum1 LeftHand_dum2
      LeftHand_dum1 LeftHandThumb1
      RightShoulder RightArm
      RightArm RightForeArm
      RightForeArm RightHand
      RightHand RightHand_dum1 RightHand_dum2
      RightHand_dum1 RightHandThumb1
      LeftUpLeg LeftLeg
      LeftLeg LeftFoot
      LeftFoot LeftToeBase
      RightUpLeg RightLeg
      RightLeg RightFoot
      RightFoot RightToeBase
   end

# File created by Blade
# Date/Time:  Tue Jan 27 19:00:36 2015
# Frame Rate: 120.000 fps
#------------------------------------------------------
:FULLY-SPECIFIED
:DEGREES
933
root -2.136786 31.794508 -3.922408 4.607128 40.064023 -1.595057
Spine -3.426198 -10.255900 -2.108115
Head 14.356770 -5.397643 4.162298
LeftShoulder -15.480774 12.429398 14.748081
LeftArm 23.714355 -27.545319 -73.585324
LeftForeArm -11.539978 -0.000000 73.605516
LeftHand -7.731746 -0.000000 23.823024
LeftHandThumb1 -26.253704 0.000000 33.147579
RightShoulder -12.579375 -4.279520 -10.280433
RightArm 4.253560 -31.737791 87.264913
RightForeArm -23.875482 -0.000000 24.589125
RightHand -15.134346 -0.000000 9.278744
RightHandThumb1 -24.326973 -0.000000 -32.862282
LeftUpLeg -6.610370 -22.490177 -3.877379
LeftLeg 17.185372 -0.000000 -0.000000
LeftFoot -21.733132 12.087118 -13.168143
LeftToeBase 9.577000 -0.000000 -0.000000
RightUpLeg -37.897465 6.043044 3.975642
RightLeg 93.927510 -0.000000 -0.000000
RightFoot -16.472476 -2.756819 25.468932
RightToeBase 5.777067 -0.000000 -0.000000
934
root -2.137974 31.791957 -3.914667 4.605705 39.752105 -1.590361
Spine -3.432963 -10.412966 -2.138067
Head 14.352935 -5.162319 4.250532
LeftShoulder -15.514304 12.562372 14.747418
LeftArm 23.479034 -27.905915 -73.316342
LeftForeArm -11.736840 -0.000000 73.533855
LeftHand -7.827062 -0.000000 23.832899
LeftHandThumb1 -26.253704 0.000000 33.147579
RightShoulder -12.674924 -4.278578 -10.247164
RightArm 4.379254 -31.567488 87.175514
RightForeArm -23.954510 -0.000000 25.241976
RightHand -15.231917 -0.000000 8.915574
RightHandThumb1 -24.326973 -0.000000 -32.862282
LeftUpLeg -6.562339 -22.376966 -3.906298
LeftLeg 17.155884 -0.000000 -0.000000
LeftFoot -21.805105 12.212197 -13.218075
LeftToeBase 9.583448 -0.000000 -0.000000
RightUpLeg -37.939679 6.255077 3.959937
RightLeg 93.987473 -0.000000 -0.000000
RightFoot -16.457088 -2.732507 25.463648
RightToeBase 5.700268 -0.000000 -0.000000
935
root -2.138755 31.789253 -3.905280 4.579187 39.471348 -1.590325
Spine -3.423525 -10.555660 -2.174457
Head 14.378519 -4.940891 4.330281
LeftShoulder -15.536852 12.779728 14.722965
LeftArm 23.326885 -28.220466 -73.065722
LeftForeArm -11.890695 0.000000 73.496245
LeftHand -7.878872 -0.000000 23.927635
LeftHandThumb1 -26.253704 0.000000 33.147579
RightShoulder -12.744577 -4.308925 -10.190106
RightArm 4.513686 -31.365999 87.077200
RightForeArm -23.802261 -0.000000 25.838961
RightHand -14.938061 -0.000000 8.751246
RightHandThumb1 -24.326973 -0.000000 -32.862282
LeftUpLeg -6.494651 -22.266651 -3.939068
LeftLeg 17.140437 -0.000000 -0.000000
LeftFoot -21.876855 12.343509 -13.244283
LeftToeBase 9.552474 -0.000000 -0.000000
RightUpLeg -37.951802 6.473561 3.953792
RightLeg 94.040413 -0.000000 -0.000000
RightFoot -16.443683 -2.681676 25.507328
RightToeBase 5.751920 -0.000000 -0.000000
936
root -2.140147 31.785607 -3.896341 4.579528 39.218529 -1.575784
Spine -3.421730 -10.745297 -2.208554
Head 14.380121 -4.774547 4.387949
LeftShoulder -15.516656 12.745902 14.789280
LeftArm 22.835784 -28.506205 -72.707334
LeftForeArm -12.079638 0.000000 73.487993
LeftHand -7.827605 0.000000 23.753409
LeftHandThumb1 -26.253704 0.000000 33.147579
RightShoulder -12.778907 -4.269839 -10.167544
RightArm 4.483662 -31.081730 87.092522
RightForeArm -23.879916 -0.000000 26.476535
RightHand -14.929429 -0.000000 8.613952
RightHandThumb1 -24.326973 -0.000000 -32.862282
LeftUpLeg -6.456425 -22.183220 -3.973871
LeftLeg 17.141343 -0.000000 -0.000000
LeftFoot -21.963743 12.476013 -13.287138
LeftToeBase 9.585795 -0.000000 -0.000000
RightUpLeg -37.983053 6.684139 3.936613
RightLeg 94.092826 -0.000000 -0.000000
RightFoot -16.429118 -2.609957 25.549033
RightToeBase 5.842439 -0.000000 -0.000000
937
root -2.141066 31.781969 -3.886598 4.567062 38.981606 -1.570239
Spine -3.418209 -10.905822 -2.250477
Head 14.401360 -4.635750 4.486067
LeftShoulder -15.567863 12.888710 14.838505
LeftArm 22.655520 -28.715339 -72.533763
LeftForeArm -12.267580 -0.000000 73.424572
LeftHand -7.793928 -0.000000 23.990139
LeftHandThumb1 -26.253704 0.000000 33.147579
RightShoulder -12.838964 -4.311116 -10.108171
RightArm 4.546674 -30.793734 87.044664
RightForeArm -23.927113 -0.000000 27.037696
RightHand -14.718419 0.000000 8.599858
RightHandThumb1 -24.326973 -0.000000 -32.862282
LeftUpLeg -6.415961 -22.072576 -4.003571
LeftLeg 17.152843 -0.000000 -0.000000
LeftFoot -22.044274 12.563109 -13.358476
LeftToeBase 9.554655 -0.000000 -0.000000
RightUpLeg -38.001720 6.878551 3.930236
RightLeg 94.132115 -0.000000 -0.000000
RightFoot -16.407374 -2.535096 25.607039
RightToeBase 5.866568 -0.000000 -0.000000
938
root -2.141188 31.778638 -3.875345 4.563671 38.766714 -1.572468
Spine -3.452261 -11.043266 -2.267146
Head 14.464025 -4.519210 4.535009
LeftShoulder -15.519443 12.899771 14.883938
LeftArm 22.346339 -28.971908 -72.279187
LeftForeArm -12.389806 -0.000000 73.366578
LeftHand -7.784840 0.000000 23.967491
LeftHandThumb1 -26.253704 0.000000 33.147579
RightShoulder -12.899860 -4.294532 -10.075713
RightArm 4.488413 -30.567058 87.067560
RightForeArm -23.719363 -0.000000 27.569237
RightHand -14.739501 -0.000000 8.305955
RightHandThumb1 -24.326973 -0.000000 -32.862282
LeftUpLeg -6.390961 -21.949411 -4.020850
LeftLeg 17.170863 -0.000000 -0.000000
LeftFoot -22.125100 12.648570 -13.387346
LeftToeBase 9.681686 -0.000000 -0.000000
RightUpLeg -38.027169 7.065783 3.924905
RightLeg 94.157122 -0.000000 -0.000000
RightFoot -16.396397 -2.404650 25.744210
RightToeBase 5.997060 -0.000000 -0.000000
939
root -2.143637 31.773950 -3.867829 4.577832 38.556899 -1.553029
Spine -3.479295 -11.189173 -2.303104
Head 14.521976 -4.410217 4.573217
LeftShoulder -15.518080 12.970346 14.927893
LeftArm 22.139316 -29.216967 -72.117138
LeftForeArm -12.450327 -0.000000 73.304790
LeftHand -7.783680 -0.000000 23.780212
LeftHandThumb1 -26.253704 0.000000 33.147579
RightShoulder -12.986205 -4.291130 -10.043910
RightArm 4.532009 -30.420513 87.067831
RightForeArm -23.506032 -0.000000 27.934949
RightHand -14.799269 -0.000000 8.077044
RightHandThumb1 -24.326973 -0.000000 -32.862282
LeftUpLeg -6.394633 -21.812777 -4.049236
LeftLeg 17.219025 -0.000000 -0.000000
LeftFoot -22.203337 12.693298 -13.417814
LeftToeBase 9.667459 -0.000000 -0.000000
RightUpLeg -38.073869 7.250099 3.897730
RightLeg 94.184552 -0.000000 -0.000000
RightFoot -16.350198 -2.271005 25.902640
RightToeBase 5.907747 -0.000000 -0.000000
940
root -2.143916 31.770347 -3.859089 4.571874 38.385669 -1.549009
Spine -3.489606 -11.304199 -2.323956
Head 14.564172 -4.380785 4.610141
LeftShoulder -15.515643 12.950055 14.955263
LeftArm 21.904057 -29.345566 -71.894893
LeftForeArm -12.505109 -0.000000 73.275149
LeftHand -7.857906 -0.000000 23.972689
LeftHandThumb1 -26.253704 0.000000 33.147579
RightShoulder -13.040515 -4.297768 -9.999663
RightArm 4.501448 -30.177456 87.073893
RightForeArm -23.234623 -0.000000 28.316708
RightHand -14.784591 -0.000000 7.874581
RightHandThumb1 -24.326973 -0.000000 -32.862282
LeftUpLeg -6.382997 -21.696419 -4.072229
LeftLeg 17.263457 -0.000000 -0.000000
LeftFoot -22.271087 12.757752 -13.439119
LeftToeBase 9.638689 -0.000000 -0.000000
RightUpLeg -38.093232 7.392927 3.886372
RightLeg 94.187332 -0.000000 -0.000000
RightFoot -16.308057 -2.177434 25.975801
RightToeBase 5.802665 -0.000000 -0.000000
941
root -2.143764 31.766984 -3.849952 4.564836 38.225716 -1.552750
Spine -3.509657 -11.392321 -2.331021
Head 14.625086 -4.410122 4.620029
LeftShoulder -15.476907 12.969157 14.980024
LeftArm 21.746292 -29.521228 -71.779396
LeftForeArm -12.514962 0.000000 73.256893
LeftHand -7.901628 -0.000000 23.903568
LeftHandThumb1 -26.253704 0.000000 33.147579
RightShoulder -13.109482 -4.313061 -9.971796
RightArm 4.447154 -29.954646 87.108650
RightForeArm -23.091273 -0.000000 28.653619
RightHand -14.744067 -0.000000 7.715763
RightHandThumb1 -24.326973 -0.000000 -32.862282
LeftUpLeg -6.373550 -21.533754 -4.084557
LeftLeg 17.302960 -0.000000 -0.000000
LeftFoot -22.338112 12.753820 -13.469354
LeftToeBase 9.724554 -0.000000 -0.000000
RightUpLeg -38.109395 7.523111 3.882325
RightLeg 94.176449 -0.000000 -0.000000
RightFoot -16.272454 -2.104739 25.969686
RightToeBase 5.801745 -0.000000 -0.000000
942
root -2.147060 31.763271 -3.845583 4.559464 38.075833 -1.531567
Spine -3.484275 -11.467629 -2.389440
Head 14.649317 -4.422277 4.696662
LeftShoulder -15.463569 13.031283 15.035376
LeftArm 21.732052 -29.674609 -71.783232
LeftForeArm -12.455438 -0.000000 73.191476
LeftHand -7.891055 0.000000 23.942813
LeftHandThumb1 -26.253704 0.000000 33.147579
RightShoulder -13.164310 -4.301971 -9.899269
RightArm 4.407659 -29.725496 87.114613
RightForeArm -22.981554 -0.000000 28.892954
RightHand -15.180373 -0.000000 6.772999
RightHandThumb1 -24.326973 -0.000000 -32.862282
LeftUpLeg -6.370778 -21.345028 -4.114488
LeftLeg 17.358577 -0.000000 -0.000000
LeftFoot -22.381527 12.710116 -13.486421
LeftToeBase 9.628887 -0.000000 -0.000000
RightUpLeg -38.127807 7.645106 3.856850
RightLeg 94.166658 -0.000000 -0.000000
RightFoot -16.247045 -2.054614 25.960003
RightToeBase 5.818256 -0.000000 -0.000000
943
root -2.146119 31.760037 -3.838040 4.551048 37.956459 -1.523788
Spine -3.490963 -11.548886 -2.409227
Head 14.703836 -4.451670 4.722678
LeftShoulder -15.473880 13.001022 15.058865
LeftArm 21.637117 -29.721134 -71.691415
LeftForeArm -12.468268 -0.000000 73.148683
LeftHand -7.891385 -0.000000 24.025739
LeftHandThumb1 -26.253704 0.000000 33.147579
RightShoulder -13.190899 -4.309063 -9.866350
RightArm 4.323960 -29.481637 87.159989
RightForeArm -22.922239 -0.000000 29.104902
RightHand -15.182287 0.000000 6.676305
RightHandThumb1 -24.326973 -0.000000 -32.862282
LeftUpLeg -6.357535 -21.171478 -4.136624
LeftLeg 17.401806 -0.000000 -0.000000
LeftFoot -22.427507 12.661454 -13.496827
LeftToeBase 9.744004 -0.000000 -0.000000
RightUpLeg -38.129648 7.750307 3.840529
RightLeg 94.141282 -0.000000 -0.000000
RightFoot -16.247998 -1.996936 25.939374
RightToeBase 5.897867 -0.000000 -0.000000
944
root -2.145223 31.756957 -3.828958 4.536651 37.843781 -1.534753
Spine -3.509139 -11.616922 -2.409061
Head 14.759888 -4.506831 4.738154
LeftShoulder -15.456779 12.978181 15.090971
LeftArm 21.554256 -29.797822 -71.656386
LeftForeArm -12.425832 -0.000000 73.114788
LeftHand -7.859613 -0.000000 23.967202
LeftHandThumb1 -26.253704 0.000000 33.147579
RightShoulder -13.223700 -4.343493 -9.835046
RightArm 4.289015 -29.356230 87.174520
RightForeArm -22.896110 -0.000000 29.240816
RightHand -15.123464 -0.000000 6.699945
RightHandThumb1 -24.326973 -0.000000 -32.862282
LeftUpLeg -6.349868 -20.963537 -4.138422
LeftLeg 17.445648 -0.000000 -0.000000
LeftFoot -22.472991 12.643076 -13.470762
LeftToeBase 9.623222 -0.000000 -0.000000
RightUpLeg -38.127069 7.844499 3.836653
RightLeg 94.095859 -0.000000 -0.000000
RightFoot -16.229041 -1.988055 25.814946
RightToeBase 5.888961 -0.000000 -0.000000
945
root -2.144486 31.754297 -3.821263 4.522068 37.754553 -1.540069
Spine -3.520793 -11.679833 -2.410661
Head 14.817480 -4.598039 4.728821
LeftShoulder -15.436554 12.988335 15.114808
LeftArm 21.520471 -29.843921 -71.658978
LeftForeArm -12.392638 -0.000000 73.117765
LeftHand -7.889295 -0.000000 24.133746
LeftHandThumb1 -26.253704 0.000000 33.147579
RightShoulder -13.241931 -4.401925 -9.801876
RightArm 4.301133 -29.323720 87.174817
RightForeArm -22.868691 -0.000000 29.296588
RightHand -15.064370 -0.000000 6.648747
RightHandThumb1 -24.326973 -0.000000 -32.862282
LeftUpLeg -6.338089 -20.807100 -4.145243
LeftLeg 17.482147 -0.000000 -0.000000
LeftFoot -22.512406 12.545012 -13.437359
LeftToeBase 9.749589 -0.000000 -0.000000
RightUpLeg -38.121954 7.932777 3.822065
RightLeg 94.040804 -0.000000 -0.000000
RightFoot -16.215148 -1.903415 25.820616
RightToeBase 5.823278 -0.000000 -0.000000
